<svg width="504" height="569" viewBox="0 0 504 569" fill="none" xmlns="http://www.w3.org/2000/svg">
<g opacity="0.5">
<path fill-rule="evenodd" clip-rule="evenodd" d="M52.1777 466.623C79.9643 466.623 102.625 489.018 102.625 516.809C102.625 544.6 79.9643 566.995 52.1777 566.995C24.3911 566.995 2 544.6 2 516.809C2 489.018 24.3911 466.623 52.1777 466.623Z" stroke="#D03539" stroke-width="4"/>
<path d="M191.393 65.4074L123.141 228.378C107.224 266.422 107.224 256.169 123.141 293.944L149.039 355.192C155.783 371.382 164.956 368.953 170.891 355.462L173.858 349.256L242.111 187.365L242.92 185.477L247.506 198.428C297.954 319.576 347.322 435.598 396.96 555.937C399.388 562.143 401.546 567 408.021 567H492.73C498.934 567 503.79 562.143 501.362 555.937L272.325 13.0626C269.897 6.85673 266.66 2 261.265 2H222.957C218.101 2 215.673 6.85673 213.245 13.0626L191.393 65.4074Z" stroke="#2F3239" stroke-width="4" stroke-linecap="round" stroke-linejoin="round"/>
</g>
</svg>
