<svg width="200" height="160" viewBox="0 0 200 160" fill="none" xmlns="http://www.w3.org/2000/svg">
<path fill-rule="evenodd" clip-rule="evenodd" d="M106.775 63.3881H130.242L119.321 82.2834C118.915 82.9437 118.864 83.2485 118.509 83.5024C118.204 83.2485 117.34 81.5723 117.036 81.1151L112.667 73.4961C110.89 70.4485 108.35 66.385 106.775 63.3881ZM99.7149 62.9818L109.772 80.0993C111.905 83.6548 114.09 87.7183 116.172 91.0707L117.29 93.0009C117.645 93.6612 118.255 94.5755 118.407 95.0834C118.458 95.0834 138.166 61.2548 140.248 57.6485L102.966 57.5469L99.7149 62.9818Z" fill="#489BD4"/>
<path fill-rule="evenodd" clip-rule="evenodd" d="M69.7485 63.3878H93.2152L91.0819 67.0957C89.812 69.483 87.8819 72.3783 86.6628 74.7148L85.1898 77.2544C84.9358 77.6608 84.7326 78.0671 84.4279 78.4735L83.0057 81.0132C82.7009 81.5211 81.8374 83.1973 81.4819 83.5021C81.1263 83.2481 80.2628 81.5719 80.0088 81.1148L77.0628 76.0354C76.8088 75.629 76.5549 75.2735 76.3009 74.8163L70.4596 64.6576C70.1549 64.2005 70.0025 63.8449 69.7485 63.3878ZM88.2882 31.3878H111.704L105.203 42.7147C104.695 43.6798 100.377 51.1973 99.9708 51.5021C99.666 51.2481 99.5136 50.7909 99.2596 50.3846C98.9549 49.9274 98.8025 49.5719 98.5485 49.1147C98.2946 48.7084 98.0406 48.302 97.7866 47.8449L88.2882 31.3878ZM121.71 25.6481H78.2819L89.7612 45.61C90.0152 45.9655 90.1676 46.2703 90.3707 46.6259L95.6025 55.6163C96.0596 56.3274 96.3644 56.9878 96.7708 57.6481H59.7422L78.6374 90.3084L81.3295 95.083L121.71 25.6481Z" fill="#E85547"/>
<path fill-rule="evenodd" clip-rule="evenodd" d="M37.0884 127.185H25.8629L23.4756 133.941H18.2439L29.2153 104.887H33.736L44.7074 133.941H39.4757L37.0884 127.185ZM27.2852 123.071H35.6661L31.4503 111.033L27.2852 123.071ZM56.3899 130.436C57.609 130.436 58.6249 130.08 59.4376 129.369C60.1995 128.709 60.6566 127.795 60.7074 126.779H65.2788C65.228 128.15 64.7709 129.369 64.009 130.537C63.2471 131.706 62.1804 132.62 60.809 133.331C59.4884 133.991 58.0153 134.347 56.4915 134.347C53.4439 134.347 51.0566 133.331 49.2788 131.401C47.5011 129.42 46.6376 126.728 46.6376 123.274V122.817C46.6376 119.515 47.5011 116.874 49.2788 114.893C51.0058 112.912 53.3931 111.947 56.4407 111.947C59.0312 111.947 61.1138 112.709 62.7392 114.182C64.3138 115.655 65.1773 117.636 65.2788 120.074H60.7074C60.6566 118.855 60.2503 117.839 59.4376 117.026C58.6249 116.214 57.609 115.807 56.3899 115.807C54.8153 115.807 53.6471 116.417 52.7836 117.534C51.9201 118.652 51.5138 120.379 51.463 122.715V123.477C51.463 125.814 51.9201 127.541 52.7328 128.709C53.5963 129.877 54.8153 130.436 56.3899 130.436ZM75.0312 107.122V112.353H78.8408V115.96H75.0312V127.896C75.0312 128.76 75.1836 129.318 75.5392 129.674C75.8439 130.08 76.4027 130.233 77.2662 130.233C77.8249 130.233 78.3836 130.182 78.9423 130.029V133.839C77.8757 134.195 76.809 134.347 75.7423 134.347C72.0344 134.347 70.155 132.264 70.155 128.15V115.96H66.6503V112.353H70.155V107.122H75.0312ZM81.0249 122.918C81.0249 120.836 81.4312 118.906 82.2439 117.229C83.1074 115.502 84.2757 114.233 85.7995 113.318C87.3233 112.404 89.0503 111.947 91.0312 111.947C93.9265 111.947 96.3138 112.861 98.0916 114.741C99.9201 116.62 100.885 119.109 101.038 122.207L101.088 123.375C101.088 125.458 100.682 127.388 99.8693 129.064C99.0058 130.741 97.8376 132.01 96.3138 132.976C94.79 133.89 93.063 134.347 91.082 134.347C88.0344 134.347 85.5963 133.331 83.7677 131.299C81.9392 129.268 81.0249 126.575 81.0249 123.172V122.918ZM85.8503 123.325C85.8503 125.56 86.3074 127.287 87.2217 128.556C88.136 129.826 89.4058 130.436 91.082 130.436C92.7074 130.436 93.9773 129.826 94.8916 128.556C95.8058 127.236 96.263 125.407 96.263 122.918C96.263 120.734 95.7551 119.007 94.8408 117.737C93.9265 116.468 92.6566 115.807 91.0312 115.807C89.4566 115.807 88.1868 116.468 87.2725 117.687C86.3074 118.956 85.8503 120.836 85.8503 123.325ZM109.673 112.353L109.825 114.842C111.399 112.912 113.482 111.947 116.073 111.947C120.593 111.947 122.879 114.537 122.98 119.668V133.941H118.104V119.922C118.104 118.55 117.8 117.534 117.241 116.874C116.631 116.214 115.666 115.909 114.346 115.909C112.365 115.909 110.892 116.772 109.977 118.55V133.941H105.101V112.353H109.673ZM140.809 133.941C140.555 133.483 140.403 132.823 140.25 131.909C138.676 133.534 136.796 134.347 134.561 134.347C132.377 134.347 130.65 133.687 129.279 132.468C127.907 131.249 127.196 129.674 127.196 127.896C127.196 125.56 128.06 123.782 129.787 122.563C131.463 121.344 133.901 120.734 137.101 120.734H140.098V119.312C140.098 118.195 139.742 117.28 139.133 116.62C138.523 115.96 137.558 115.604 136.288 115.604C135.171 115.604 134.257 115.909 133.596 116.468C132.885 116.975 132.53 117.687 132.53 118.55H127.653C127.653 117.382 128.06 116.264 128.822 115.249C129.634 114.182 130.701 113.42 132.022 112.81C133.393 112.252 134.917 111.947 136.542 111.947C139.082 111.947 141.114 112.556 142.587 113.826C144.111 115.096 144.873 116.874 144.923 119.21V128.912C144.923 130.893 145.177 132.417 145.736 133.585V133.941H140.809ZM135.476 130.436C136.441 130.436 137.304 130.233 138.168 129.725C139.031 129.268 139.641 128.658 140.098 127.845V123.782H137.457C135.679 123.782 134.307 124.087 133.393 124.747C132.53 125.356 132.073 126.22 132.073 127.388C132.073 128.302 132.377 129.064 132.987 129.623C133.596 130.182 134.409 130.436 135.476 130.436ZM156.098 107.122V112.353H159.907V115.96H156.098V127.896C156.098 128.76 156.25 129.318 156.555 129.674C156.911 130.08 157.469 130.233 158.333 130.233C158.892 130.233 159.45 130.182 160.009 130.029V133.839C158.892 134.195 157.825 134.347 156.809 134.347C153.101 134.347 151.222 132.264 151.222 128.15V115.96H147.666V112.353H151.222V107.122H156.098ZM173.114 134.347C170.015 134.347 167.527 133.382 165.647 131.401C163.717 129.471 162.752 126.931 162.752 123.68V123.071C162.752 120.937 163.158 119.007 164.022 117.331C164.834 115.604 166.003 114.283 167.527 113.369C169 112.404 170.676 111.947 172.555 111.947C175.501 111.947 177.736 112.861 179.361 114.741C180.936 116.62 181.749 119.312 181.749 122.715V124.696H167.628C167.78 126.474 168.39 127.845 169.406 128.912C170.473 129.928 171.793 130.436 173.368 130.436C175.603 130.436 177.38 129.572 178.803 127.744L181.393 130.233C180.53 131.553 179.412 132.569 177.939 133.28C176.517 133.991 174.892 134.347 173.114 134.347ZM172.504 115.807C171.184 115.807 170.117 116.315 169.304 117.229C168.492 118.144 167.933 119.464 167.73 121.141H176.974V120.785C176.873 119.16 176.415 117.89 175.654 117.077C174.892 116.214 173.876 115.807 172.504 115.807Z" fill="#484848"/>
</svg>
