<svg width="300" height="150" viewBox="0 0 300 150" fill="none" xmlns="http://www.w3.org/2000/svg">
<path fill-rule="evenodd" clip-rule="evenodd" d="M20.3084 94.078C23.2795 94.078 25.7172 96.5158 25.7172 99.4868C25.7172 102.458 23.2795 104.819 20.3084 104.819C17.4135 104.819 14.9758 102.458 14.9758 99.4868C14.9758 96.5158 17.4135 94.078 20.3084 94.078Z" fill="#CF2127"/>
<path fill-rule="evenodd" clip-rule="evenodd" d="M35.2392 51.2529L27.9259 68.6983C26.1738 72.7359 26.2499 71.5931 27.9259 75.6307L30.6684 82.1822C31.4302 83.9344 32.3444 83.7059 33.03 82.2584L33.3347 81.5728L40.6481 64.2798L35.2392 51.2529Z" fill="#202124"/>
<path fill-rule="evenodd" clip-rule="evenodd" d="M41.1773 65.4307C46.5861 78.3815 51.8425 90.7989 57.1752 103.673C57.4037 104.359 57.6323 104.816 58.3179 104.816H67.3834C68.069 104.816 68.6023 104.359 68.2976 103.673L43.8436 45.7C43.615 45.0143 43.2341 44.4811 42.6247 44.4811H38.5871C38.0539 44.4811 37.8253 45.0143 37.5206 45.7L35.2352 51.2612L40.5678 64.288L40.7202 64.0595L41.1773 65.4307Z" fill="#2F3239"/>
<path d="M98.3937 98.8731C98.927 99.254 99.0794 100.016 98.6985 100.549C96.2607 103.977 92.4517 105.501 86.6619 105.501C76.6823 105.501 71.1211 99.1778 71.1211 89.7315V85.0083C71.1211 74.8001 76.7585 69.3912 87.1952 69.3912C91.9946 69.3912 96.1083 70.991 98.6223 74.1144C99.0032 74.6477 98.927 75.4857 98.3937 75.8666L93.5182 79.2185C93.0611 79.5233 92.4517 79.4471 91.9946 79.0662C90.8519 77.7711 89.2521 76.9331 86.9667 76.9331C81.9387 76.9331 79.958 79.9803 79.958 85.5415V89.1982C79.958 94.1499 81.3293 97.959 86.9667 97.959C89.1759 97.959 90.8519 97.2733 92.0708 95.8259C92.5278 95.3688 93.2135 95.2926 93.6705 95.5974L98.3937 98.8731Z" fill="#2F3239"/>
<path d="M104.95 69.9959H108.226V63.5205C108.226 62.9111 108.759 62.3778 109.445 62.3778H115.92C116.53 62.3778 117.063 62.9111 117.063 63.5205V69.9959H122.7C123.386 69.9959 123.919 70.5291 123.919 71.2148V76.395C123.919 77.0045 123.386 77.5378 122.7 77.5378H117.063V92.0882C117.063 95.5926 117.748 97.04 121.024 97.04H122.7C123.386 97.04 123.919 97.5732 123.919 98.1827V103.668C123.919 104.277 123.386 104.81 122.7 104.81H120.11C111.73 104.81 108.226 102.449 108.226 93.4595V77.5378H104.95C104.341 77.5378 103.807 77.0045 103.807 76.395V71.2148C103.807 70.5291 104.341 69.9959 104.95 69.9959Z" fill="#2F3239"/>
<path d="M158.883 89.4267C158.883 99.0255 154.312 105.501 143.8 105.501C133.744 105.501 128.792 99.1778 128.792 89.4267V85.2368C128.792 74.8001 134.277 69.3912 143.8 69.3912C153.474 69.3912 158.883 74.8001 158.883 85.2368V89.4267ZM149.97 89.1982V85.5415C149.97 79.9803 148.218 76.9331 143.8 76.9331C139.457 76.9331 137.629 79.9803 137.629 85.5415V89.1982C137.629 94.1499 138.848 97.959 143.8 97.959C148.675 97.959 149.97 94.1499 149.97 89.1982Z" fill="#2F3239"/>
<path d="M164.893 70.0007H171.216C171.901 70.0007 172.434 70.5339 172.434 71.2196V72.9717C173.729 71.2196 176.548 69.3912 180.433 69.3912C187.442 69.3912 193.156 72.7432 193.156 83.0276V103.672C193.156 104.282 192.622 104.815 192.013 104.815H185.461C184.852 104.815 184.319 104.282 184.319 103.672V84.475C184.319 78.99 182.338 77.0855 178.757 77.0855C174.644 77.0855 172.587 79.7518 172.587 84.3988V103.672C172.587 104.282 172.054 104.815 171.444 104.815H164.893C164.207 104.815 163.674 104.282 163.674 103.672V71.2196C163.674 70.5339 164.207 70.0007 164.893 70.0007Z" fill="#2F3239"/>
<path d="M210.909 83.9417H217.765V81.961C217.765 77.9996 216.622 76.7808 211.594 76.7808C208.7 76.7808 207.024 77.1617 205.729 78.6853C205.271 79.1424 204.586 79.2947 204.129 78.9138L199.71 75.8666C199.177 75.4857 199.101 74.7239 199.482 74.1906C202.072 70.6863 205.881 69.3912 212.432 69.3912C221.422 69.3912 226.526 72.0576 226.526 82.0372V103.672C226.526 104.282 225.993 104.815 225.307 104.815H218.984C218.298 104.815 217.765 104.282 217.765 103.672V101.768C216.394 104.13 214.337 105.501 210.299 105.501C203.062 105.501 198.034 101.616 198.034 94.5308C198.034 87.1413 203.595 83.9417 210.909 83.9417ZM217.765 90.4933H211.975C208.319 90.4933 206.719 91.7121 206.719 94.3785C206.719 97.0448 208.776 98.2637 211.823 98.2637C215.861 98.2637 217.765 96.5877 217.765 91.7883V90.4933Z" fill="#2F3239"/>
<path d="M232.553 69.9959H235.829V63.5205C235.829 62.9111 236.362 62.3778 236.972 62.3778H243.523C244.133 62.3778 244.666 62.9111 244.666 63.5205V69.9959H250.303C250.989 69.9959 251.522 70.5291 251.522 71.2148V76.395C251.522 77.0045 250.989 77.5378 250.303 77.5378H244.666V92.0882C244.666 95.5926 245.352 97.04 248.627 97.04H250.303C250.989 97.04 251.522 97.5732 251.522 98.1827V103.668C251.522 104.277 250.989 104.81 250.303 104.81H247.713C239.333 104.81 235.829 102.449 235.829 93.4595V77.5378H232.553C231.868 77.5378 231.334 77.0045 231.334 76.395V71.2148C231.334 70.5291 231.868 69.9959 232.553 69.9959Z" fill="#2F3239"/>
<path d="M283.592 98.8731C284.201 99.254 284.277 100.016 283.896 100.549C281.459 104.053 277.573 105.501 271.784 105.501C261.347 105.501 256.319 98.7208 256.319 89.7315V85.0083C256.319 74.4953 261.652 69.3912 270.717 69.3912C280.544 69.3912 285.039 75.1048 285.039 85.6939V88.5126C285.039 89.122 284.506 89.6553 283.896 89.6553H265.232C265.232 94.4546 266.832 97.959 271.707 97.959C274.831 97.959 276.126 97.1971 277.269 95.8259C277.65 95.3688 278.335 95.2165 278.868 95.5974L283.592 98.8731ZM265.232 83.3323H275.745C275.974 83.3323 276.126 83.1037 276.126 82.8752C275.821 78.6853 273.993 76.9331 270.793 76.9331C267.213 76.9331 265.537 79.3709 265.232 83.3323Z" fill="#2F3239"/>
</svg>
