<svg width="32" height="48" viewBox="0 0 32 48" fill="none" xmlns="http://www.w3.org/2000/svg">
<path fill-rule="evenodd" clip-rule="evenodd" d="M17.325 0H14.671C6.418 0.615 0 7.065 0 14.815V33.069C0 41.3 7.176 48 16 48C24.824 48 32 41.3 32 33.07V14.814C32 7.07 25.581 0.62 17.325 0ZM29 32.884C29 39.568 23.167 45.003 16 45.003C8.833 45.003 3 39.568 3 32.884V15.119C3 8.436 8.829 3 16 3C23.171 3 29 8.436 29 15.119V32.884ZM16 13.0001C15.4737 12.995 14.9671 13.1996 14.5919 13.5686C14.2167 13.9376 14.0037 14.4408 14 14.9671V20.0321C14.0706 21.0822 14.943 21.898 15.9955 21.898C17.048 21.898 17.9204 21.0822 17.991 20.0321V14.9671C17.9827 13.8748 17.0923 12.9951 16 13.0001Z" fill="#BDBDBD"/>
</svg>
